<mxfile host="app.diagrams.net" modified="2024-05-25T12:29:07.044Z" agent="Mozilla/5.0 (X11; Linux x86_64; rv:126.0) Gecko/20100101 Firefox/126.0" etag="wQ-PGTt-ggqbu6ECehUi" version="24.4.7" type="github">
  <diagram name="Page-1" id="mHGmssFRY5UQQijoJ907">
    <mxGraphModel dx="1434" dy="759" grid="1" gridSize="10" guides="1" tooltips="1" connect="1" arrows="1" fold="1" page="1" pageScale="1" pageWidth="850" pageHeight="1100" math="0" shadow="0">
      <root>
        <mxCell id="0" />
        <mxCell id="1" parent="0" />
        <UserObject label="&lt;div dir=&quot;ltr&quot; style=&quot;margin-left:0pt;&quot; align=&quot;left&quot; id=&quot;docs-internal-guid-eb51715e-7fff-15b8-d10d-5771e510f578&quot;&gt;&lt;table style=&quot;border:none;border-collapse:collapse;table-layout:fixed;width:467.71653543307093pt&quot;&gt;&lt;colgroup&gt;&lt;col&gt;&lt;/colgroup&gt;&lt;tbody&gt;&lt;tr style=&quot;height:315pt&quot;&gt;&lt;td style=&quot;vertical-align:top;padding:5pt 5pt 5pt 5pt;overflow:hidden;overflow-wrap:break-word;&quot;&gt;&lt;p dir=&quot;ltr&quot; style=&quot;line-height:1.38;text-align: center;margin-top:0pt;margin-bottom:0pt;&quot;&gt;&lt;span style=&quot;font-size:11pt;font-family:&#39;Times New Roman&#39;,serif;color:#000000;background-color:transparent;font-weight:400;font-style:normal;font-variant:normal;text-decoration:none;vertical-align:baseline;white-space:pre;white-space:pre-wrap;&quot;&gt;&lt;span style=&quot;border:none;display:inline-block;overflow:hidden;width:613px;height:406px;&quot;&gt;&lt;img src=&quot;https://lh7-us.googleusercontent.com/bswTyAWf5Xiv_5Xc47wmjoogAVXkiql1SxV1Vh_B6S1iF6Y22jIG1DsHSSn7ZdfYJ3OryAC-O3_6ZES6cctWG9GyJp8E4eWeYHD5X5IsWMRWEYICB0ShUlDdC_WRj37qZxLSIHhdG893qHV5mM85ISE&quot; width=&quot;613&quot; height=&quot;406&quot; style=&quot;margin-left:0px;margin-top:0px;&quot;&gt;&lt;/span&gt;&lt;/span&gt;&lt;/p&gt;&lt;/td&gt;&lt;/tr&gt;&lt;tr style=&quot;height:0pt&quot;&gt;&lt;td style=&quot;vertical-align:top;padding:5pt 5pt 5pt 5pt;overflow:hidden;overflow-wrap:break-word;&quot;&gt;&lt;p dir=&quot;ltr&quot; style=&quot;line-height:1.38;text-align: center;margin-top:0pt;margin-bottom:0pt;&quot;&gt;&lt;span style=&quot;font-size:11pt;font-family:&#39;Times New Roman&#39;,serif;color:#000000;background-color:transparent;font-weight:400;font-style:normal;font-variant:normal;text-decoration:none;vertical-align:baseline;white-space:pre;white-space:pre-wrap;&quot;&gt;&lt;span style=&quot;border:none;display:inline-block;overflow:hidden;width:609px;height:420px;&quot;&gt;&lt;img src=&quot;https://lh7-us.googleusercontent.com/JJ16OdUNdB_pw35w8QhKfON3my644EqZ-Isimsdd7VciDQIWoyLjOogH2rYDtMzxfQGBPuITG_t6QnD_s4YSqGII997nctuLD_pJkDi2yrDN085C4nN_fPbt6G9iGGW9eIITv01MT7PEhfhCFoRkLeI&quot; width=&quot;609&quot; height=&quot;420&quot; style=&quot;margin-left:0px;margin-top:0px;&quot;&gt;&lt;/span&gt;&lt;/span&gt;&lt;/p&gt;&lt;br&gt;&lt;/td&gt;&lt;/tr&gt;&lt;/tbody&gt;&lt;/table&gt;&lt;/div&gt;" link="&lt;div dir=&quot;ltr&quot; style=&quot;margin-left:0pt;&quot; align=&quot;left&quot; id=&quot;docs-internal-guid-eb51715e-7fff-15b8-d10d-5771e510f578&quot;&gt;&lt;table style=&quot;border:none;border-collapse:collapse;table-layout:fixed;width:467.71653543307093pt&quot;&gt;&lt;colgroup&gt;&lt;col&gt;&lt;/colgroup&gt;&lt;tbody&gt;&lt;tr style=&quot;height:315pt&quot;&gt;&lt;td style=&quot;vertical-align:top;padding:5pt 5pt 5pt 5pt;overflow:hidden;overflow-wrap:break-word;&quot;&gt;&lt;p dir=&quot;ltr&quot; style=&quot;line-height:1.38;text-align: center;margin-top:0pt;margin-bottom:0pt;&quot;&gt;&lt;span style=&quot;font-size:11pt;font-family:&#39;Times New Roman&#39;,serif;color:#000000;background-color:transparent;font-weight:400;font-style:normal;font-variant:normal;text-decoration:none;vertical-align:baseline;white-space:pre;white-space:pre-wrap;&quot;&gt;&lt;span style=&quot;border:none;display:inline-block;overflow:hidden;width:613px;height:406px;&quot;&gt;&lt;img src=&quot;https://lh7-us.googleusercontent.com/bswTyAWf5Xiv_5Xc47wmjoogAVXkiql1SxV1Vh_B6S1iF6Y22jIG1DsHSSn7ZdfYJ3OryAC-O3_6ZES6cctWG9GyJp8E4eWeYHD5X5IsWMRWEYICB0ShUlDdC_WRj37qZxLSIHhdG893qHV5mM85ISE&quot; width=&quot;613&quot; height=&quot;406&quot; style=&quot;margin-left:0px;margin-top:0px;&quot;&gt;&lt;/span&gt;&lt;/span&gt;&lt;/p&gt;&lt;/td&gt;&lt;/tr&gt;&lt;tr style=&quot;height:0pt&quot;&gt;&lt;td style=&quot;vertical-align:top;padding:5pt 5pt 5pt 5pt;overflow:hidden;overflow-wrap:break-word;&quot;&gt;&lt;p dir=&quot;ltr&quot; style=&quot;line-height:1.38;text-align: center;margin-top:0pt;margin-bottom:0pt;&quot;&gt;&lt;span style=&quot;font-size:11pt;font-family:&#39;Times New Roman&#39;,serif;color:#000000;background-color:transparent;font-weight:400;font-style:normal;font-variant:normal;text-decoration:none;vertical-align:baseline;white-space:pre;white-space:pre-wrap;&quot;&gt;&lt;span style=&quot;border:none;display:inline-block;overflow:hidden;width:609px;height:420px;&quot;&gt;&lt;img src=&quot;https://lh7-us.googleusercontent.com/JJ16OdUNdB_pw35w8QhKfON3my644EqZ-Isimsdd7VciDQIWoyLjOogH2rYDtMzxfQGBPuITG_t6QnD_s4YSqGII997nctuLD_pJkDi2yrDN085C4nN_fPbt6G9iGGW9eIITv01MT7PEhfhCFoRkLeI&quot; width=&quot;609&quot; height=&quot;420&quot; style=&quot;margin-left:0px;margin-top:0px;&quot;&gt;&lt;/span&gt;&lt;/span&gt;&lt;/p&gt;&lt;br&gt;&lt;/td&gt;&lt;/tr&gt;&lt;/tbody&gt;&lt;/table&gt;&lt;/div&gt;" id="L3nOdyyJmliSmuwXw1lJ-2">
          <mxCell style="text;whiteSpace=wrap;html=1;movable=0;resizable=0;rotatable=0;deletable=0;editable=0;locked=1;connectable=0;" vertex="1" parent="1">
            <mxGeometry x="40" y="520" width="560" height="900" as="geometry" />
          </mxCell>
        </UserObject>
        <mxCell id="L3nOdyyJmliSmuwXw1lJ-3" value="&lt;b&gt;&lt;font style=&quot;font-size: 18px;&quot;&gt;А) Прямые риды&lt;/font&gt;&lt;/b&gt;" style="text;html=1;align=left;verticalAlign=middle;whiteSpace=wrap;rounded=0;" vertex="1" parent="1">
          <mxGeometry x="40" y="500" width="160" height="30" as="geometry" />
        </mxCell>
        <mxCell id="L3nOdyyJmliSmuwXw1lJ-4" value="&lt;b&gt;&lt;font style=&quot;font-size: 18px;&quot;&gt;Б) Обратные риды&lt;/font&gt;&lt;/b&gt;" style="text;html=1;align=left;verticalAlign=middle;whiteSpace=wrap;rounded=0;" vertex="1" parent="1">
          <mxGeometry x="40" y="940" width="180" height="30" as="geometry" />
        </mxCell>
        <mxCell id="L3nOdyyJmliSmuwXw1lJ-5" value="" style="endArrow=classic;html=1;rounded=0;strokeWidth=3;" edge="1" parent="1">
          <mxGeometry width="50" height="50" relative="1" as="geometry">
            <mxPoint x="160" y="736" as="sourcePoint" />
            <mxPoint x="68" y="736" as="targetPoint" />
          </mxGeometry>
        </mxCell>
        <mxCell id="L3nOdyyJmliSmuwXw1lJ-7" value="" style="endArrow=classic;html=1;rounded=0;strokeWidth=3;" edge="1" parent="1">
          <mxGeometry width="50" height="50" relative="1" as="geometry">
            <mxPoint x="160" y="644" as="sourcePoint" />
            <mxPoint x="68" y="644" as="targetPoint" />
          </mxGeometry>
        </mxCell>
        <mxCell id="L3nOdyyJmliSmuwXw1lJ-8" value="&lt;font style=&quot;font-size: 18px;&quot;&gt;&lt;b&gt;1 из 1000 нуклеотидов прочтен с ошибкой&lt;/b&gt;&lt;/font&gt;" style="text;html=1;align=center;verticalAlign=middle;whiteSpace=wrap;rounded=0;" vertex="1" parent="1">
          <mxGeometry x="162" y="627" width="420" height="30" as="geometry" />
        </mxCell>
        <mxCell id="L3nOdyyJmliSmuwXw1lJ-9" value="&lt;font style=&quot;font-size: 18px;&quot;&gt;&lt;b&gt;1 из 100 нуклеотидов прочтен с ошибкой&lt;/b&gt;&lt;/font&gt;" style="text;html=1;align=center;verticalAlign=middle;whiteSpace=wrap;rounded=0;" vertex="1" parent="1">
          <mxGeometry x="162" y="719" width="420" height="30" as="geometry" />
        </mxCell>
        <mxCell id="L3nOdyyJmliSmuwXw1lJ-10" value="" style="endArrow=classic;html=1;rounded=0;strokeWidth=3;" edge="1" parent="1">
          <mxGeometry width="50" height="50" relative="1" as="geometry">
            <mxPoint x="160" y="831" as="sourcePoint" />
            <mxPoint x="68" y="831" as="targetPoint" />
          </mxGeometry>
        </mxCell>
        <mxCell id="L3nOdyyJmliSmuwXw1lJ-11" value="&lt;font style=&quot;font-size: 18px;&quot;&gt;&lt;b&gt;1 из 10 нуклеотидов прочтен с ошибкой&lt;/b&gt;&lt;/font&gt;" style="text;html=1;align=center;verticalAlign=middle;whiteSpace=wrap;rounded=0;" vertex="1" parent="1">
          <mxGeometry x="162" y="814" width="420" height="30" as="geometry" />
        </mxCell>
      </root>
    </mxGraphModel>
  </diagram>
</mxfile>
